<svg xmlns="http://www.w3.org/2000/svg" viewBox="0 0 537.66 537.66"><defs><style>.cls-1{isolation:isolate;}.cls-2{fill:#fff;}.cls-2,.cls-6{stroke:#1e97c1;}.cls-2,.cls-4,.cls-6{stroke-miterlimit:10;}.cls-3{opacity:0.75;mix-blend-mode:multiply;}.cls-4,.cls-6{font-size:396.25px;font-family:PoorRichard-Regular, Poor Richard;}.cls-4{stroke:#000;}.cls-5,.cls-6{fill:#2196f3;}</style></defs><title>Mobile logo</title><g class="cls-1"><g id="Layer_2" data-name="Layer 2"><g id="Layer_1-2" data-name="Layer 1"><circle class="cls-2" cx="268.83" cy="268.83" r="268.33"/><g class="cls-3"><path d="M125.78,267.48c2.25-2.22,4.29-4.27,6.37-6.28a68.15,68.15,0,0,0,20.78-40.81,3.34,3.34,0,0,0-1.32-2.72c-9.08-5.92-9-17,.2-22.71a4.2,4.2,0,0,0,1.68-2.75c1.14-8.57,2.52-17.08,6.85-24.91,1.45-2.63,3.32-5.07,5.18-7.87-1.44-.5-3-1.1-4.64-1.59q-12.4-3.82-24.81-7.58c-2.78-.84-4.82-2.19-4.93-5-.1-2.49,1.54-4.15,5.07-5.21q66.73-20.08,133.49-40.08a10.74,10.74,0,0,1,5.72,0q66.57,19.9,133.08,40c3.77,1.14,5.51,2.79,5.37,5.27-.17,3-2.34,4.26-5.23,5.13q-66.2,19.85-132.36,39.81a12.27,12.27,0,0,1-7.48,0q-34.46-10.35-69-20.53c-.74-.22-1.46-.48-2.87-1,4.13-1.6,7.69-3.1,11.35-4.37q30.56-10.64,61.17-21.18c1.67-.58,3.4-1,5-1.61,3.49-1.3,5.07-4.37,3.93-7.43a6.44,6.44,0,0,0-8.25-3.89c-10.6,3.29-21.17,6.66-31.66,10.21q-15.47,5.24-30.75,10.93c-6.33,2.34-12.51,5-18.73,7.56-12.08,5-18.53,13.67-20.63,25.26-.34,1.86-.66,3.72-1,5.57-.58,3.18-.66,5.8,2.61,8.47,5.44,4.45,5.15,12-.16,16.59-2.08,1.79-2.15,3.44-1.78,5.68,1.78,10.93,3.2,21.92,1.47,33a30.43,30.43,0,0,1-14,21.69c-4,2.6-8.21,3.48-12.82,1.25-4.46-2.16-9-4.21-13.42-6.39A30.14,30.14,0,0,1,125.78,267.48Z"/><path d="M354.63,368.18v19c0,5.28-.22,10.58.05,15.85.38,7.37-2.75,12.9-8.16,17.42-6.51,5.44-14.08,8.89-22,11.53-18.69,6.23-38,8.27-57.56,8.07-17.22-.18-34.18-2.19-50.64-7.45-9.68-3.09-19-7-26.35-14.45-.33-.33-.62-.7-1-1.17,3-3.57,5.48-7.41,5.76-12.24.47-7.93-1.86-14.67-8.33-19.64-.6-.46-1.43-1.23-1.39-1.82.28-4.75.73-9.48,1.18-14.72l13.76,4.61q31.53,10.61,63.05,21.23a19.68,19.68,0,0,0,12.93,0q37.93-12.7,75.88-25.34C352.54,368.81,353.34,368.58,354.63,368.18Z"/><text class="cls-4" transform="translate(193.51 355.67) scale(0.87 1)">e</text></g><path class="cls-5" d="M124.78,266.48c2.25-2.22,4.29-4.27,6.37-6.28a68.15,68.15,0,0,0,20.78-40.81,3.34,3.34,0,0,0-1.32-2.72c-9.08-5.92-9-17,.2-22.71a4.2,4.2,0,0,0,1.68-2.75c1.14-8.57,2.52-17.08,6.85-24.91,1.45-2.63,3.32-5.07,5.18-7.87-1.44-.5-3-1.1-4.64-1.59q-12.4-3.82-24.81-7.58c-2.78-.84-4.82-2.19-4.93-5-.1-2.49,1.54-4.15,5.07-5.21q66.73-20.08,133.49-40.08a10.74,10.74,0,0,1,5.72,0q66.57,19.9,133.08,40c3.77,1.14,5.51,2.79,5.37,5.27-.17,3-2.34,4.26-5.23,5.13q-66.2,19.85-132.36,39.81a12.27,12.27,0,0,1-7.48,0q-34.46-10.35-69-20.53c-.74-.22-1.46-.48-2.87-1,4.13-1.6,7.69-3.1,11.35-4.37q30.56-10.64,61.17-21.18c1.67-.58,3.4-1,5-1.61,3.49-1.3,5.07-4.37,3.93-7.43a6.44,6.44,0,0,0-8.25-3.89c-10.6,3.29-21.17,6.66-31.66,10.21q-15.47,5.24-30.75,10.93c-6.33,2.34-12.51,5-18.73,7.56-12.08,5-18.53,13.67-20.63,25.26-.34,1.86-.66,3.72-1,5.57-.58,3.18-.66,5.8,2.61,8.47,5.44,4.45,5.15,12-.16,16.59-2.08,1.79-2.15,3.44-1.78,5.68,1.78,10.93,3.2,21.92,1.47,33a30.43,30.43,0,0,1-14,21.69c-4,2.6-8.21,3.48-12.82,1.25-4.46-2.16-9-4.21-13.42-6.39A30.14,30.14,0,0,1,124.78,266.48Z"/><path class="cls-5" d="M353.63,367.18v19c0,5.28-.22,10.58.05,15.85.38,7.37-2.75,12.9-8.16,17.42-6.51,5.44-14.08,8.89-22,11.53-18.69,6.23-38,8.27-57.56,8.07-17.22-.18-34.18-2.19-50.64-7.45-9.68-3.09-19-7-26.35-14.45-.33-.33-.62-.7-1-1.17,3-3.57,5.48-7.41,5.76-12.24.47-7.93-1.86-14.67-8.33-19.64-.6-.46-1.43-1.23-1.39-1.82.28-4.75.73-9.48,1.18-14.72l13.76,4.61q31.53,10.61,63.05,21.23a19.68,19.68,0,0,0,12.93,0q37.93-12.7,75.88-25.34C351.54,367.81,352.34,367.58,353.63,367.18Z"/><text class="cls-6" transform="translate(192.51 354.67) scale(0.87 1)">e</text></g></g></g></svg>